<svg width="10" height="10" viewBox="0 0 10 10" fill="none" xmlns="http://www.w3.org/2000/svg">
<path d="M0.701393 3.1066C0.741559 2.48823 1.23872 2.00361 1.85763 1.97295C2.75386 1.92855 4.03482 1.875 4.99999 1.875C5.96515 1.875 7.24611 1.92855 8.14234 1.97295C8.76125 2.00361 9.25841 2.48823 9.29858 3.1066C9.33706 3.69904 9.37499 4.42802 9.37499 5C9.37499 5.57198 9.33706 6.30096 9.29858 6.8934C9.25841 7.51177 8.76125 7.99639 8.14234 8.02705C7.24611 8.07145 5.96515 8.125 4.99999 8.125C4.03482 8.125 2.75386 8.07145 1.85763 8.02705C1.23872 7.99639 0.741559 7.51177 0.701393 6.8934C0.662911 6.30096 0.624985 5.57198 0.624985 5C0.624985 4.42802 0.662911 3.69904 0.701393 3.1066Z" fill="#FC0D1B"/>
<path d="M4.06252 3.75V6.25L6.56252 5L4.06252 3.75Z" fill="white"/>
</svg>
